<mxfile host="65bd71144e">
    <diagram id="p8IQ7bzfmHI7QChbwMOX" name="第 1 页">
        <mxGraphModel dx="810" dy="374" grid="1" gridSize="10" guides="1" tooltips="1" connect="1" arrows="1" fold="1" page="1" pageScale="1" pageWidth="1169" pageHeight="827" math="0" shadow="0" adaptiveColors="auto">
            <root>
                <mxCell id="0"/>
                <mxCell id="1" parent="0"/>
                <mxCell id="2" value="Set-TouchFile Start" style="rounded=0;whiteSpace=wrap;html=1;" parent="1" vertex="1">
                    <mxGeometry x="40" y="380" width="120" height="40" as="geometry"/>
                </mxCell>
                <mxCell id="3" value="Normal Mode" style="rounded=0;whiteSpace=wrap;html=1;" parent="1" vertex="1">
                    <mxGeometry x="240" y="320" width="120" height="40" as="geometry"/>
                </mxCell>
                <mxCell id="4" value="Quick Access Mode" style="rounded=0;whiteSpace=wrap;html=1;" parent="1" vertex="1">
                    <mxGeometry x="240" y="440" width="120" height="40" as="geometry"/>
                </mxCell>
                <mxCell id="9" value="" style="edgeStyle=elbowEdgeStyle;elbow=horizontal;endArrow=classic;html=1;curved=0;rounded=0;endSize=8;startSize=8;entryX=0;entryY=0.5;entryDx=0;entryDy=0;" parent="1" target="3" edge="1">
                    <mxGeometry width="50" height="50" relative="1" as="geometry">
                        <mxPoint x="160" y="400" as="sourcePoint"/>
                        <mxPoint x="210" y="350" as="targetPoint"/>
                    </mxGeometry>
                </mxCell>
                <mxCell id="10" value="" style="edgeStyle=elbowEdgeStyle;elbow=horizontal;endArrow=classic;html=1;curved=0;rounded=0;endSize=8;startSize=8;entryX=0;entryY=0.5;entryDx=0;entryDy=0;" parent="1" target="4" edge="1">
                    <mxGeometry width="50" height="50" relative="1" as="geometry">
                        <mxPoint x="160" y="400" as="sourcePoint"/>
                        <mxPoint x="210" y="450" as="targetPoint"/>
                    </mxGeometry>
                </mxCell>
                <mxCell id="11" value="w/ -Location" style="rounded=0;whiteSpace=wrap;html=1;" parent="1" vertex="1">
                    <mxGeometry x="440" y="240" width="120" height="40" as="geometry"/>
                </mxCell>
                <mxCell id="12" value="w/o -Location" style="rounded=0;whiteSpace=wrap;html=1;" parent="1" vertex="1">
                    <mxGeometry x="440" y="320" width="120" height="40" as="geometry"/>
                </mxCell>
                <mxCell id="13" value="" style="edgeStyle=elbowEdgeStyle;elbow=horizontal;endArrow=classic;html=1;curved=0;rounded=0;endSize=8;startSize=8;entryX=0;entryY=0.5;entryDx=0;entryDy=0;" parent="1" target="11" edge="1">
                    <mxGeometry width="50" height="50" relative="1" as="geometry">
                        <mxPoint x="360" y="340" as="sourcePoint"/>
                        <mxPoint x="440" y="280" as="targetPoint"/>
                    </mxGeometry>
                </mxCell>
                <mxCell id="14" value="" style="edgeStyle=elbowEdgeStyle;elbow=horizontal;endArrow=classic;html=1;curved=0;rounded=0;endSize=8;startSize=8;entryX=0;entryY=0.5;entryDx=0;entryDy=0;exitX=1;exitY=0.5;exitDx=0;exitDy=0;" parent="1" source="3" target="12" edge="1">
                    <mxGeometry width="50" height="50" relative="1" as="geometry">
                        <mxPoint x="370" y="350" as="sourcePoint"/>
                        <mxPoint x="450" y="270" as="targetPoint"/>
                    </mxGeometry>
                </mxCell>
                <mxCell id="15" value="Touch a file in the provided location" style="rounded=0;whiteSpace=wrap;html=1;" parent="1" vertex="1">
                    <mxGeometry x="640" y="240" width="120" height="40" as="geometry"/>
                </mxCell>
                <mxCell id="16" value="" style="edgeStyle=elbowEdgeStyle;elbow=horizontal;endArrow=classic;html=1;curved=0;rounded=0;endSize=8;startSize=8;entryX=0;entryY=0.5;entryDx=0;entryDy=0;" parent="1" target="15" edge="1">
                    <mxGeometry width="50" height="50" relative="1" as="geometry">
                        <mxPoint x="560" y="260" as="sourcePoint"/>
                        <mxPoint x="640" y="180" as="targetPoint"/>
                    </mxGeometry>
                </mxCell>
                <mxCell id="19" value="Touch a file in the current working dir" style="rounded=0;whiteSpace=wrap;html=1;" parent="1" vertex="1">
                    <mxGeometry x="640" y="320" width="120" height="40" as="geometry"/>
                </mxCell>
                <mxCell id="20" value="" style="edgeStyle=elbowEdgeStyle;elbow=horizontal;endArrow=classic;html=1;curved=0;rounded=0;endSize=8;startSize=8;entryX=0;entryY=0.5;entryDx=0;entryDy=0;" parent="1" target="19" edge="1">
                    <mxGeometry width="50" height="50" relative="1" as="geometry">
                        <mxPoint x="560" y="340" as="sourcePoint"/>
                        <mxPoint x="640" y="260" as="targetPoint"/>
                    </mxGeometry>
                </mxCell>
                <mxCell id="21" value="If file doesn&#39;t exist" style="rounded=0;whiteSpace=wrap;html=1;align=left;spacingLeft=11;" parent="1" vertex="1">
                    <mxGeometry x="1040" y="200" width="120" height="40" as="geometry"/>
                </mxCell>
                <mxCell id="22" value="" style="edgeStyle=elbowEdgeStyle;elbow=horizontal;endArrow=classic;html=1;curved=0;rounded=0;endSize=8;startSize=8;entryX=0;entryY=0.5;entryDx=0;entryDy=0;" parent="1" target="21" edge="1">
                    <mxGeometry width="50" height="50" relative="1" as="geometry">
                        <mxPoint x="960" y="300" as="sourcePoint"/>
                        <mxPoint x="1040" y="220" as="targetPoint"/>
                    </mxGeometry>
                </mxCell>
                <mxCell id="23" value="If file exists" style="rounded=0;whiteSpace=wrap;html=1;align=left;spacingLeft=11;" parent="1" vertex="1">
                    <mxGeometry x="1040" y="360" width="120" height="40" as="geometry"/>
                </mxCell>
                <mxCell id="24" value="" style="edgeStyle=elbowEdgeStyle;elbow=horizontal;endArrow=classic;html=1;curved=0;rounded=0;endSize=8;startSize=8;entryX=0;entryY=0.5;entryDx=0;entryDy=0;exitX=1;exitY=0.5;exitDx=0;exitDy=0;" parent="1" target="23" edge="1">
                    <mxGeometry width="50" height="50" relative="1" as="geometry">
                        <mxPoint x="960" y="300" as="sourcePoint"/>
                        <mxPoint x="1050" y="190" as="targetPoint"/>
                    </mxGeometry>
                </mxCell>
                <mxCell id="25" value="Prompt User: Open the file? (Y/N)" style="rounded=0;whiteSpace=wrap;html=1;align=left;spacingLeft=20;" parent="1" vertex="1">
                    <mxGeometry x="1480" y="350" width="200" height="60" as="geometry"/>
                </mxCell>
                <mxCell id="26" value="" style="edgeStyle=elbowEdgeStyle;elbow=horizontal;endArrow=classic;html=1;curved=0;rounded=0;endSize=8;startSize=8;exitX=1;exitY=0.5;exitDx=0;exitDy=0;" parent="1" edge="1">
                    <mxGeometry width="50" height="50" relative="1" as="geometry">
                        <mxPoint x="1160" y="220" as="sourcePoint"/>
                        <mxPoint x="1240" y="220" as="targetPoint"/>
                    </mxGeometry>
                </mxCell>
                <mxCell id="50" value="" style="edgeStyle=none;html=1;" edge="1" parent="1" source="27" target="31">
                    <mxGeometry relative="1" as="geometry"/>
                </mxCell>
                <mxCell id="27" value="Yes: Open file with default program" style="rounded=0;whiteSpace=wrap;html=1;labelPosition=center;verticalLabelPosition=middle;align=left;verticalAlign=middle;spacingLeft=20;" parent="1" vertex="1">
                    <mxGeometry x="1840" y="360" width="240" height="40" as="geometry"/>
                </mxCell>
                <mxCell id="28" value="" style="edgeStyle=elbowEdgeStyle;elbow=horizontal;endArrow=classic;html=1;curved=0;rounded=0;endSize=8;startSize=8;entryX=0;entryY=0.5;entryDx=0;entryDy=0;" parent="1" edge="1" target="27">
                    <mxGeometry width="50" height="50" relative="1" as="geometry">
                        <mxPoint x="1680" y="380" as="sourcePoint"/>
                        <mxPoint x="1760" y="380" as="targetPoint"/>
                    </mxGeometry>
                </mxCell>
                <mxCell id="29" value="No: Prompt User:&amp;nbsp;&lt;div&gt;Create a file with new filename?&lt;/div&gt;" style="rounded=0;whiteSpace=wrap;html=1;labelPosition=center;verticalLabelPosition=middle;align=left;verticalAlign=middle;spacingLeft=20;" parent="1" vertex="1">
                    <mxGeometry x="1840" y="450" width="240" height="60" as="geometry"/>
                </mxCell>
                <mxCell id="30" value="" style="edgeStyle=elbowEdgeStyle;elbow=horizontal;endArrow=classic;html=1;curved=0;rounded=0;endSize=8;startSize=8;entryX=0;entryY=0.5;entryDx=0;entryDy=0;" parent="1" edge="1" target="29">
                    <mxGeometry width="50" height="50" relative="1" as="geometry">
                        <mxPoint x="1680" y="380" as="sourcePoint"/>
                        <mxPoint x="1760" y="460" as="targetPoint"/>
                    </mxGeometry>
                </mxCell>
                <mxCell id="31" value="Program exits" style="rounded=0;whiteSpace=wrap;html=1;labelPosition=center;verticalLabelPosition=middle;align=left;verticalAlign=middle;spacingLeft=20;" parent="1" vertex="1">
                    <mxGeometry x="2160" y="360" width="240" height="40" as="geometry"/>
                </mxCell>
                <mxCell id="33" value="" style="edgeStyle=elbowEdgeStyle;elbow=horizontal;endArrow=classic;html=1;curved=0;rounded=0;endSize=8;startSize=8;exitX=1;exitY=0.5;exitDx=0;exitDy=0;" parent="1" source="36" target="25" edge="1">
                    <mxGeometry width="50" height="50" relative="1" as="geometry">
                        <mxPoint x="1420" y="400" as="sourcePoint"/>
                        <mxPoint x="1500" y="350" as="targetPoint"/>
                    </mxGeometry>
                </mxCell>
                <mxCell id="36" value="Update file timestamp" style="rounded=0;whiteSpace=wrap;html=1;align=left;spacingLeft=11;" parent="1" vertex="1">
                    <mxGeometry x="1240" y="360" width="160" height="40" as="geometry"/>
                </mxCell>
                <mxCell id="37" value="" style="edgeStyle=elbowEdgeStyle;elbow=horizontal;endArrow=classic;html=1;curved=0;rounded=0;endSize=8;startSize=8;exitX=1;exitY=0.5;exitDx=0;exitDy=0;entryX=0;entryY=0.5;entryDx=0;entryDy=0;" parent="1" target="36" edge="1">
                    <mxGeometry width="50" height="50" relative="1" as="geometry">
                        <mxPoint x="1160" y="380" as="sourcePoint"/>
                        <mxPoint x="1260" y="360" as="targetPoint"/>
                    </mxGeometry>
                </mxCell>
                <mxCell id="38" value="Yes: Open file with default program" style="rounded=0;whiteSpace=wrap;html=1;labelPosition=center;verticalLabelPosition=middle;align=left;verticalAlign=middle;spacingLeft=20;" vertex="1" parent="1">
                    <mxGeometry x="2640" y="520" width="240" height="40" as="geometry"/>
                </mxCell>
                <mxCell id="39" value="" style="edgeStyle=elbowEdgeStyle;elbow=horizontal;endArrow=classic;html=1;curved=0;rounded=0;endSize=8;startSize=8;entryX=0;entryY=0.5;entryDx=0;entryDy=0;" edge="1" parent="1" target="38">
                    <mxGeometry width="50" height="50" relative="1" as="geometry">
                        <mxPoint x="2560" y="540" as="sourcePoint"/>
                        <mxPoint x="2640" y="540" as="targetPoint"/>
                    </mxGeometry>
                </mxCell>
                <mxCell id="40" value="No: Program exits" style="rounded=0;whiteSpace=wrap;html=1;labelPosition=center;verticalLabelPosition=middle;align=left;verticalAlign=middle;spacingLeft=20;" vertex="1" parent="1">
                    <mxGeometry x="2640" y="600" width="240" height="40" as="geometry"/>
                </mxCell>
                <mxCell id="41" value="" style="edgeStyle=elbowEdgeStyle;elbow=horizontal;endArrow=classic;html=1;curved=0;rounded=0;endSize=8;startSize=8;entryX=0;entryY=0.5;entryDx=0;entryDy=0;" edge="1" parent="1" target="40">
                    <mxGeometry width="50" height="50" relative="1" as="geometry">
                        <mxPoint x="2560" y="540" as="sourcePoint"/>
                        <mxPoint x="2640" y="620" as="targetPoint"/>
                    </mxGeometry>
                </mxCell>
                <mxCell id="42" value="Create a new file" style="rounded=0;whiteSpace=wrap;html=1;align=left;spacingLeft=11;" vertex="1" parent="1">
                    <mxGeometry x="1240" y="200" width="160" height="40" as="geometry"/>
                </mxCell>
                <mxCell id="43" value="Prompt User: Open the file? (Y/N)" style="rounded=0;whiteSpace=wrap;html=1;align=left;spacingLeft=20;" vertex="1" parent="1">
                    <mxGeometry x="1480" y="190" width="200" height="60" as="geometry"/>
                </mxCell>
                <mxCell id="53" value="" style="edgeStyle=none;html=1;" edge="1" parent="1" source="44" target="52">
                    <mxGeometry relative="1" as="geometry"/>
                </mxCell>
                <mxCell id="44" value="Yes: Open file with default program" style="rounded=0;whiteSpace=wrap;html=1;labelPosition=center;verticalLabelPosition=middle;align=left;verticalAlign=middle;spacingLeft=20;" vertex="1" parent="1">
                    <mxGeometry x="1840" y="120" width="240" height="40" as="geometry"/>
                </mxCell>
                <mxCell id="45" value="" style="edgeStyle=elbowEdgeStyle;elbow=horizontal;endArrow=classic;html=1;curved=0;rounded=0;endSize=8;startSize=8;entryX=0;entryY=0.5;entryDx=0;entryDy=0;" edge="1" parent="1" target="44">
                    <mxGeometry width="50" height="50" relative="1" as="geometry">
                        <mxPoint x="1680" y="220" as="sourcePoint"/>
                        <mxPoint x="1760" y="220" as="targetPoint"/>
                    </mxGeometry>
                </mxCell>
                <mxCell id="46" value="No: Program exits" style="rounded=0;whiteSpace=wrap;html=1;labelPosition=center;verticalLabelPosition=middle;align=left;verticalAlign=middle;spacingLeft=20;" vertex="1" parent="1">
                    <mxGeometry x="1840" y="200" width="240" height="40" as="geometry"/>
                </mxCell>
                <mxCell id="47" value="" style="edgeStyle=elbowEdgeStyle;elbow=horizontal;endArrow=classic;html=1;curved=0;rounded=0;endSize=8;startSize=8;entryX=0;entryY=0.5;entryDx=0;entryDy=0;" edge="1" parent="1" target="46">
                    <mxGeometry width="50" height="50" relative="1" as="geometry">
                        <mxPoint x="1680" y="220" as="sourcePoint"/>
                        <mxPoint x="1760" y="300" as="targetPoint"/>
                    </mxGeometry>
                </mxCell>
                <mxCell id="48" value="" style="edgeStyle=elbowEdgeStyle;elbow=horizontal;endArrow=classic;html=1;curved=0;rounded=0;endSize=8;startSize=8;exitX=1;exitY=0.5;exitDx=0;exitDy=0;" edge="1" parent="1" target="43">
                    <mxGeometry width="50" height="50" relative="1" as="geometry">
                        <mxPoint x="1400" y="220" as="sourcePoint"/>
                        <mxPoint x="1500" y="190" as="targetPoint"/>
                    </mxGeometry>
                </mxCell>
                <mxCell id="52" value="Program exits" style="rounded=0;whiteSpace=wrap;html=1;labelPosition=center;verticalLabelPosition=middle;align=left;verticalAlign=middle;spacingLeft=20;" vertex="1" parent="1">
                    <mxGeometry x="2160" y="120" width="240" height="40" as="geometry"/>
                </mxCell>
                <mxCell id="54" value="Touch Logic" style="rounded=0;whiteSpace=wrap;html=1;align=center;spacingLeft=0;" vertex="1" parent="1">
                    <mxGeometry x="840" y="280" width="120" height="40" as="geometry"/>
                </mxCell>
                <mxCell id="55" value="" style="edgeStyle=elbowEdgeStyle;elbow=horizontal;endArrow=classic;html=1;curved=0;rounded=0;endSize=8;startSize=8;entryX=0;entryY=0.5;entryDx=0;entryDy=0;exitX=1;exitY=0.5;exitDx=0;exitDy=0;" edge="1" parent="1" target="54">
                    <mxGeometry width="50" height="50" relative="1" as="geometry">
                        <mxPoint x="760" y="260" as="sourcePoint"/>
                        <mxPoint x="840" y="260" as="targetPoint"/>
                    </mxGeometry>
                </mxCell>
                <mxCell id="56" value="" style="edgeStyle=elbowEdgeStyle;elbow=horizontal;endArrow=classic;html=1;curved=0;rounded=0;endSize=8;startSize=8;entryX=0;entryY=0.5;entryDx=0;entryDy=0;exitX=1;exitY=0.5;exitDx=0;exitDy=0;" edge="1" parent="1" target="54">
                    <mxGeometry width="50" height="50" relative="1" as="geometry">
                        <mxPoint x="760" y="339.8" as="sourcePoint"/>
                        <mxPoint x="840" y="339.8" as="targetPoint"/>
                    </mxGeometry>
                </mxCell>
                <mxCell id="57" value="Input: A filename string" style="rounded=0;whiteSpace=wrap;html=1;labelPosition=center;verticalLabelPosition=middle;align=left;verticalAlign=middle;spacingLeft=20;" vertex="1" parent="1">
                    <mxGeometry x="2160" y="460" width="240" height="40" as="geometry"/>
                </mxCell>
                <mxCell id="59" value="" style="edgeStyle=elbowEdgeStyle;elbow=horizontal;endArrow=classic;html=1;curved=0;rounded=0;endSize=8;startSize=8;entryX=0;entryY=0.5;entryDx=0;entryDy=0;" edge="1" parent="1" target="57">
                    <mxGeometry width="50" height="50" relative="1" as="geometry">
                        <mxPoint x="2080" y="480" as="sourcePoint"/>
                        <mxPoint x="2160" y="560" as="targetPoint"/>
                    </mxGeometry>
                </mxCell>
                <mxCell id="60" value="Input: Nothing" style="rounded=0;whiteSpace=wrap;html=1;labelPosition=center;verticalLabelPosition=middle;align=left;verticalAlign=middle;spacingLeft=20;" vertex="1" parent="1">
                    <mxGeometry x="2160" y="520" width="240" height="40" as="geometry"/>
                </mxCell>
                <mxCell id="61" value="" style="edgeStyle=elbowEdgeStyle;elbow=horizontal;endArrow=classic;html=1;curved=0;rounded=0;endSize=8;startSize=8;entryX=0;entryY=0.5;entryDx=0;entryDy=0;" edge="1" parent="1" target="60">
                    <mxGeometry width="50" height="50" relative="1" as="geometry">
                        <mxPoint x="2080" y="479.71" as="sourcePoint"/>
                        <mxPoint x="2160" y="479.71" as="targetPoint"/>
                    </mxGeometry>
                </mxCell>
                <mxCell id="62" value="Recurse Touch Logic" style="rounded=0;whiteSpace=wrap;html=1;align=center;spacingLeft=0;" vertex="1" parent="1">
                    <mxGeometry x="2480" y="460" width="150" height="40" as="geometry"/>
                </mxCell>
            </root>
        </mxGraphModel>
    </diagram>
</mxfile>